<?xml version="1.0" encoding="utf-8"?>
<!-- Generator: Adobe Illustrator 26.1.0, SVG Export Plug-In . SVG Version: 6.00 Build 0)  -->
<svg version="1.1" xmlns="http://www.w3.org/2000/svg" xmlns:xlink="http://www.w3.org/1999/xlink" x="0px" y="0px"
	 viewBox="0 0 1366 768" style="enable-background:new 0 0 1366 768;" xml:space="preserve">
<style type="text/css">
	.st0{fill:#330066;}
	.st1{fill:#330066;stroke:#000000;stroke-miterlimit:10;}
	.st2{opacity:0.37;}
	.st3{fill:#33CC33;stroke:#33CC33;stroke-width:2.1607;stroke-miterlimit:10;}
	.st4{fill:#6633FF;stroke:#6633FF;stroke-width:2.1607;stroke-miterlimit:10;}
	.st5{opacity:0.92;}
	.st6{fill:#6633FF;stroke:#FFFF00;stroke-width:0.8832;stroke-miterlimit:10;}
	.st7{opacity:0.76;}
</style>
<g id="Background">
	<g>
		<rect x="-6.5" y="-16.5" class="st0" width="1390" height="803"/>
		<path d="M1383-16v802H-6V-16H1383 M1384-17H-7v804h1391V-17L1384-17z"/>
	</g>
	<path class="st1" d="M-29.5,17.5"/>
</g>
<g id="Lines">
	<g class="st2">
		<line class="st3" x1="-19.5" y1="-23" x2="1388.5" y2="-23"/>
		<line class="st3" x1="-19.73" y1="-6.57" x2="1388.27" y2="-6.57"/>
		<line class="st3" x1="-19.95" y1="9.86" x2="1388.05" y2="9.86"/>
		<line class="st3" x1="-20.18" y1="26.29" x2="1387.82" y2="26.29"/>
		<line class="st3" x1="-20.4" y1="42.73" x2="1387.6" y2="42.73"/>
		<line class="st3" x1="-20.63" y1="59.16" x2="1387.37" y2="59.16"/>
		<line class="st3" x1="-20.85" y1="75.59" x2="1387.15" y2="75.59"/>
		<line class="st3" x1="-21.08" y1="92.02" x2="1386.92" y2="92.02"/>
		<line class="st3" x1="-21.3" y1="108.45" x2="1386.7" y2="108.45"/>
		<line class="st3" x1="-21.53" y1="124.88" x2="1386.47" y2="124.88"/>
		<line class="st3" x1="-21.75" y1="141.31" x2="1386.25" y2="141.31"/>
		<line class="st3" x1="-21.98" y1="157.75" x2="1386.02" y2="157.75"/>
		<line class="st3" x1="-22.21" y1="174.18" x2="1385.79" y2="174.18"/>
		<line class="st3" x1="-22.43" y1="190.61" x2="1385.57" y2="190.61"/>
		<line class="st3" x1="-22.66" y1="207.04" x2="1385.34" y2="207.04"/>
		<line class="st3" x1="-22.88" y1="223.47" x2="1385.12" y2="223.47"/>
		<line class="st3" x1="-23.11" y1="239.9" x2="1384.89" y2="239.9"/>
		<line class="st3" x1="-23.33" y1="256.33" x2="1384.67" y2="256.33"/>
		<line class="st3" x1="-23.56" y1="272.76" x2="1384.44" y2="272.76"/>
		<line class="st3" x1="-23.78" y1="289.2" x2="1384.22" y2="289.2"/>
		<line class="st3" x1="-24.01" y1="305.63" x2="1383.99" y2="305.63"/>
		<line class="st3" x1="-24.24" y1="322.06" x2="1383.76" y2="322.06"/>
		<line class="st3" x1="-24.46" y1="338.49" x2="1383.54" y2="338.49"/>
		<line class="st3" x1="-24.69" y1="354.92" x2="1383.31" y2="354.92"/>
		<line class="st3" x1="-24.91" y1="371.35" x2="1383.09" y2="371.35"/>
		<line class="st3" x1="-25.14" y1="387.78" x2="1382.86" y2="387.78"/>
		<line class="st3" x1="-25.36" y1="404.22" x2="1382.64" y2="404.22"/>
		<line class="st3" x1="-25.59" y1="420.65" x2="1382.41" y2="420.65"/>
		<line class="st3" x1="-25.81" y1="437.08" x2="1382.19" y2="437.08"/>
		<line class="st3" x1="-26.04" y1="453.51" x2="1381.96" y2="453.51"/>
		<line class="st3" x1="-26.26" y1="469.94" x2="1381.74" y2="469.94"/>
		<line class="st3" x1="-26.49" y1="486.37" x2="1381.51" y2="486.37"/>
		<line class="st3" x1="-26.72" y1="502.8" x2="1381.28" y2="502.8"/>
		<line class="st3" x1="-26.94" y1="519.24" x2="1381.06" y2="519.24"/>
		<line class="st3" x1="-27.17" y1="535.67" x2="1380.83" y2="535.67"/>
		<line class="st3" x1="-27.39" y1="552.1" x2="1380.61" y2="552.1"/>
		<line class="st3" x1="-27.62" y1="568.53" x2="1380.38" y2="568.53"/>
		<line class="st3" x1="-27.84" y1="584.96" x2="1380.16" y2="584.96"/>
		<line class="st3" x1="-28.07" y1="601.39" x2="1379.93" y2="601.39"/>
		<line class="st3" x1="-28.29" y1="617.82" x2="1379.71" y2="617.82"/>
		<line class="st3" x1="-28.52" y1="634.25" x2="1379.48" y2="634.25"/>
		<line class="st3" x1="-28.75" y1="650.69" x2="1379.25" y2="650.69"/>
		<line class="st3" x1="-28.97" y1="667.12" x2="1379.03" y2="667.12"/>
		<line class="st3" x1="-29.2" y1="683.55" x2="1378.8" y2="683.55"/>
		<line class="st3" x1="-29.42" y1="699.98" x2="1378.58" y2="699.98"/>
		<line class="st3" x1="-29.65" y1="716.41" x2="1378.35" y2="716.41"/>
		<line class="st3" x1="-29.87" y1="732.84" x2="1378.13" y2="732.84"/>
		<line class="st3" x1="-30.1" y1="749.27" x2="1377.9" y2="749.27"/>
		<line class="st3" x1="-30.32" y1="765.71" x2="1377.68" y2="765.71"/>
		<line class="st3" x1="-30.55" y1="782.14" x2="1377.45" y2="782.14"/>
		<line class="st3" x1="-30.77" y1="798.57" x2="1377.23" y2="798.57"/>
		<line class="st3" x1="-31" y1="815" x2="1377" y2="815"/>
	</g>
	<g class="st2">
		<line class="st4" x1="-19.45" y1="-16.65" x2="1388.55" y2="-16.65"/>
		<line class="st4" x1="-19.67" y1="-0.22" x2="1388.33" y2="-0.22"/>
		<line class="st4" x1="-19.9" y1="16.21" x2="1388.1" y2="16.21"/>
		<line class="st4" x1="-20.12" y1="32.64" x2="1387.88" y2="32.64"/>
		<line class="st4" x1="-20.35" y1="49.07" x2="1387.65" y2="49.07"/>
		<line class="st4" x1="-20.57" y1="65.51" x2="1387.43" y2="65.51"/>
		<line class="st4" x1="-20.8" y1="81.94" x2="1387.2" y2="81.94"/>
		<line class="st4" x1="-21.03" y1="98.37" x2="1386.97" y2="98.37"/>
		<line class="st4" x1="-21.25" y1="114.8" x2="1386.75" y2="114.8"/>
		<line class="st4" x1="-21.48" y1="131.23" x2="1386.52" y2="131.23"/>
		<line class="st4" x1="-21.7" y1="147.66" x2="1386.3" y2="147.66"/>
		<line class="st4" x1="-21.93" y1="164.09" x2="1386.07" y2="164.09"/>
		<line class="st4" x1="-22.15" y1="180.52" x2="1385.85" y2="180.52"/>
		<line class="st4" x1="-22.38" y1="196.96" x2="1385.62" y2="196.96"/>
		<line class="st4" x1="-22.6" y1="213.39" x2="1385.4" y2="213.39"/>
		<line class="st4" x1="-22.83" y1="229.82" x2="1385.17" y2="229.82"/>
		<line class="st4" x1="-23.05" y1="246.25" x2="1384.95" y2="246.25"/>
		<line class="st4" x1="-23.28" y1="262.68" x2="1384.72" y2="262.68"/>
		<line class="st4" x1="-23.51" y1="279.11" x2="1384.49" y2="279.11"/>
		<line class="st4" x1="-23.73" y1="295.54" x2="1384.27" y2="295.54"/>
		<line class="st4" x1="-23.96" y1="311.98" x2="1384.04" y2="311.98"/>
		<line class="st4" x1="-24.18" y1="328.41" x2="1383.82" y2="328.41"/>
		<line class="st4" x1="-24.41" y1="344.84" x2="1383.59" y2="344.84"/>
		<line class="st4" x1="-24.63" y1="361.27" x2="1383.37" y2="361.27"/>
		<line class="st4" x1="-24.86" y1="377.7" x2="1383.14" y2="377.7"/>
		<line class="st4" x1="-25.08" y1="394.13" x2="1382.92" y2="394.13"/>
		<line class="st4" x1="-25.31" y1="410.56" x2="1382.69" y2="410.56"/>
		<line class="st4" x1="-25.54" y1="427" x2="1382.46" y2="427"/>
		<line class="st4" x1="-25.76" y1="443.43" x2="1382.24" y2="443.43"/>
		<line class="st4" x1="-25.99" y1="459.86" x2="1382.01" y2="459.86"/>
		<line class="st4" x1="-26.21" y1="476.29" x2="1381.79" y2="476.29"/>
		<line class="st4" x1="-26.44" y1="492.72" x2="1381.56" y2="492.72"/>
		<line class="st4" x1="-26.66" y1="509.15" x2="1381.34" y2="509.15"/>
		<line class="st4" x1="-26.89" y1="525.58" x2="1381.11" y2="525.58"/>
		<line class="st4" x1="-27.11" y1="542.02" x2="1380.89" y2="542.02"/>
		<line class="st4" x1="-27.34" y1="558.45" x2="1380.66" y2="558.45"/>
		<line class="st4" x1="-27.56" y1="574.88" x2="1380.44" y2="574.88"/>
		<line class="st4" x1="-27.79" y1="591.31" x2="1380.21" y2="591.31"/>
		<line class="st4" x1="-28.02" y1="607.74" x2="1379.98" y2="607.74"/>
		<line class="st4" x1="-28.24" y1="624.17" x2="1379.76" y2="624.17"/>
		<line class="st4" x1="-28.47" y1="640.6" x2="1379.53" y2="640.6"/>
		<line class="st4" x1="-28.69" y1="657.03" x2="1379.31" y2="657.03"/>
		<line class="st4" x1="-28.92" y1="673.47" x2="1379.08" y2="673.47"/>
		<line class="st4" x1="-29.14" y1="689.9" x2="1378.86" y2="689.9"/>
		<line class="st4" x1="-29.37" y1="706.33" x2="1378.63" y2="706.33"/>
		<line class="st4" x1="-29.59" y1="722.76" x2="1378.41" y2="722.76"/>
		<line class="st4" x1="-29.82" y1="739.19" x2="1378.18" y2="739.19"/>
		<line class="st4" x1="-30.05" y1="755.62" x2="1377.95" y2="755.62"/>
		<line class="st4" x1="-30.27" y1="772.05" x2="1377.73" y2="772.05"/>
		<line class="st4" x1="-30.5" y1="788.49" x2="1377.5" y2="788.49"/>
		<line class="st4" x1="-30.72" y1="804.92" x2="1377.28" y2="804.92"/>
		<line class="st4" x1="-30.95" y1="821.35" x2="1377.05" y2="821.35"/>
	</g>
</g>
<g id="Other_lines">
	<g class="st5">
		<path class="st6" d="M1030,625.74c19-1.67-1304,0-1304,0"/>
		<path class="st6" d="M729.8,637.84c15.2-1.34-734.6,0-734.6,0"/>
		<path class="st6" d="M429.6,649.94c11.4-1-165.2,0-165.2,0"/>
		<path class="st6" d="M129.4,662.03c7.6-0.67,404.2,0,404.2,0"/>
		<path class="st6" d="M-170.8,674.13c3.8-0.33,973.6,0,973.6,0"/>
		<line class="st6" x1="-471" y1="686.23" x2="1072" y2="686.23"/>
		<line class="st6" x1="-153.2" y1="694.78" x2="757.6" y2="694.78"/>
		<line class="st6" x1="164.6" y1="703.34" x2="443.2" y2="703.34"/>
		<line class="st6" x1="482.4" y1="711.89" x2="128.8" y2="711.89"/>
		<line class="st6" x1="800.2" y1="720.45" x2="-185.6" y2="720.45"/>
		<line class="st6" x1="1118" y1="729" x2="-500" y2="729"/>
	</g>
	<g class="st7">
		<path class="st6" d="M2213.17,0.75c19-1.67-1304,0-1304,0"/>
		<path class="st6" d="M1912.97,12.85c15.2-1.34-734.6,0-734.6,0"/>
		<path class="st6" d="M1612.77,24.95c11.4-1-165.2,0-165.2,0"/>
		<path class="st6" d="M1312.57,37.04c7.6-0.67,404.2,0,404.2,0"/>
		<path class="st6" d="M1012.37,49.14c3.8-0.33,973.6,0,973.6,0"/>
		<line class="st6" x1="712.17" y1="61.24" x2="2255.17" y2="61.24"/>
		<line class="st6" x1="1029.97" y1="69.79" x2="1940.77" y2="69.79"/>
		<line class="st6" x1="1347.77" y1="78.35" x2="1626.37" y2="78.35"/>
		<line class="st6" x1="1665.57" y1="86.9" x2="1311.97" y2="86.9"/>
		<line class="st6" x1="1983.37" y1="95.45" x2="997.57" y2="95.45"/>
		<line class="st6" x1="2301.17" y1="104.01" x2="683.17" y2="104.01"/>
	</g>
</g>
</svg>
